<?xml version="1.0" encoding="UTF-8" standalone="no" ?>
<!DOCTYPE svg PUBLIC "-//W3C//DTD SVG 1.1//EN" "http://www.w3.org/Graphics/SVG/1.1/DTD/svg11.dtd">
<svg xmlns="http://www.w3.org/2000/svg" xmlns:xlink="http://www.w3.org/1999/xlink" version="1.1" width="512" height="512" viewBox="0 0 512 512" xml:space="preserve">
<desc>Created with Fabric.js 5.2.4</desc>
<defs>
</defs>
<rect x="0" y="0" width="100%" height="100%" fill="transparent"></rect>
<g transform="matrix(1 0 0 1 256 256)" id="05130d08-3bc5-40d9-b8fe-3dc3d12f6f47"  >
<rect style="stroke: none; stroke-width: 1; stroke-dasharray: none; stroke-linecap: butt; stroke-dashoffset: 0; stroke-linejoin: miter; stroke-miterlimit: 4; fill: rgb(21,181,162); fill-rule: nonzero; opacity: 1;" vector-effect="non-scaling-stroke"  x="-256" y="-256" rx="0" ry="0" width="512" height="512" />
</g>
<g transform="matrix(0 0 0 0 0 0)" id="acbce2b8-b84a-4e3c-a4cd-aa3c376599ab"  >
</g>
<g transform="matrix(0 0 0 0 0 0)"  >
<g style=""   >
</g>
</g>
<g transform="matrix(0 0 0 0 0 0)"  >
<g style=""   >
</g>
</g>
<g transform="matrix(0.67 0 0 0.67 256 256)"  >
<g style="" vector-effect="non-scaling-stroke"   >
		<g transform="matrix(1 0 0 1 0 0)"  >
<path style="stroke: none; stroke-width: 1; stroke-dasharray: none; stroke-linecap: butt; stroke-dashoffset: 0; stroke-linejoin: miter; stroke-miterlimit: 4; fill: rgb(255,255,255); fill-rule: nonzero; opacity: 1;" vector-effect="non-scaling-stroke"  transform=" translate(-256, -255.9)" d="M 497 431 L 465.53 431 C 455.9451270123746 413.16002480623985 437.3317778257339 402.0307030254659 417.08 402.0307030254659 C 396.8282221742661 402.0307030254659 378.21487298762537 413.16002480623985 368.63 431 L 224.45 431 C 214.86512701237461 413.16002480623985 196.2517778257339 402.0307030254659 176 402.0307030254659 C 155.74822217426606 402.0307030254659 137.13487298762533 413.16002480623985 127.54999999999998 431 L 116.32999999999998 431 C 102.52288125423014 431 91.32999999999998 419.80711874576986 91.32999999999998 406 C 91.32999999999998 392.19288125423014 102.52288125423014 381 116.32999999999998 381 L 447 381 C 454.00589738694737 381.0009466213895 460.0793614281535 376.1521386923883 461.63 369.32 L 511.63 149.32 C 512.6397274547429 144.87112484675583 511.5699553620417 140.20452767186802 508.7231691197492 136.63972083941428 C 505.8763828774567 133.0749140069605 501.5620214030657 130.99938357083477 497 131 L 455.51 131 C 452.34999999999997 213.7 384.1 280 300.64 280 C 217.17999999999995 280 148.92999999999998 213.7 145.76999999999998 131 L 108.53999999999999 131 L 90.82999999999998 12.780000000000001 C 89.73108844946834 5.436689052045328 83.42508024225664 0.0023812376039522576 75.99999999999997 0 L 14.999999999999986 1.7763568394002505e-15 C 6.715728752538084 1.7763568394002505e-15 -1.4210854715202004e-14 6.7157287525381 -1.4210854715202004e-14 15.000000000000002 C -1.4210854715202004e-14 23.284271247461902 6.715728752538084 30 14.999999999999986 30 L 63.079999999999984 30 L 80.77999999999999 148.12 C 80.775071245888 148.1531511387051 80.775071245888 148.1868488612949 80.77999999999999 148.22 L 111.18999999999998 351.22 C 81.84267723517625 353.849888062871 59.781139823802064 379.1401381934245 61.15920477922524 408.5728173386299 C 62.53726973464842 438.0054964838352 86.86533722602773 461.12374288693235 116.32999999999998 461 L 121.15999999999998 461 C 123.35133590327648 489.66593732720924 147.25042755294476 511.80781679789635 175.99999999999997 511.80781679789635 C 204.7495724470552 511.80781679789635 228.64866409672348 489.66593732720924 230.83999999999997 461 L 362.24 461 C 364.4313359032765 489.6659373272093 388.33042755294474 511.8078167978964 417.08000000000004 511.8078167978964 C 445.8295724470553 511.8078167978964 469.72866409672355 489.6659373272093 471.92 461 L 497 461 C 505.2842712474619 461 512 454.2842712474619 512 446 C 512 437.7157287525381 505.2842712474619 431 497 431 z" stroke-linecap="round" />
</g>
		<g transform="matrix(1 0 0 1 44.64 -130.9)"  >
<path style="stroke: none; stroke-width: 1; stroke-dasharray: none; stroke-linecap: butt; stroke-dashoffset: 0; stroke-linejoin: miter; stroke-miterlimit: 4; fill: rgb(255,255,255); fill-rule: nonzero; opacity: 1;" vector-effect="non-scaling-stroke"  transform=" translate(-300.64, -125)" d="M 300.64 250 C 369.67559372884915 250 425.64 194.03559372884916 425.64 125 C 425.64 55.964406271150835 369.67559372884915 0 300.64 0 C 231.60440627115082 0 175.64 55.96440627115081 175.64 124.99999999999999 C 175.7226529083645 194.0013287752389 231.63867122476108 249.91734709163552 300.64 250 z M 239.64 112.36000000000001 C 245.26348817906893 106.28201315567158 254.7483279527711 105.91049748732931 260.83 111.53000000000002 L 285.76 134.53000000000003 L 340.46 84.00000000000003 C 346.5831305435609 78.77657245397714 355.7373570821556 79.31649063220956 361.20401296494185 85.22348618335381 C 366.6706688477281 91.13048173449806 366.5012058956572 100.29905073227374 360.82 106.00000000000003 L 295.93 166.00000000000003 C 290.1809787818817 171.31723459289773 281.3090212181183 171.31723459289773 275.56 166.00000000000003 L 240.46 133.54000000000002 C 234.38860319840495 127.91750994827214 234.0172138143908 118.44036879957396 239.63 112.36000000000001 z" stroke-linecap="round" />
</g>
</g>
</g>
</svg>