<?xml version="1.0" encoding="UTF-8" standalone="no" ?>
<!DOCTYPE svg PUBLIC "-//W3C//DTD SVG 1.1//EN" "http://www.w3.org/Graphics/SVG/1.1/DTD/svg11.dtd">
<svg xmlns="http://www.w3.org/2000/svg" xmlns:xlink="http://www.w3.org/1999/xlink" version="1.1" width="86" height="128" viewBox="0 0 86 128" xml:space="preserve">
<desc>Created with Fabric.js 5.2.4</desc>
<defs>
</defs>
<rect x="0" y="0" width="100%" height="100%" fill="transparent"></rect>
<g transform="matrix(0 0 0 0 0 0)" id="66b1ca88-c683-46a6-924f-0776925de5d3"  >
</g>
<g transform="matrix(1 0 0 1 43 64)" id="3abd55db-b75c-4de5-90e1-835f7e872e0f"  >
<rect style="stroke: none; stroke-width: 1; stroke-dasharray: none; stroke-linecap: butt; stroke-dashoffset: 0; stroke-linejoin: miter; stroke-miterlimit: 4; fill: rgb(255,255,255); fill-rule: nonzero; opacity: 1; visibility: hidden;" vector-effect="non-scaling-stroke"  x="-43" y="-64" rx="0" ry="0" width="86" height="128" />
</g>
<g transform="matrix(0 0 0 0 49.89 86.16)"  >
<g style=""   >
</g>
</g>
<g transform="matrix(0.98 0 0 0.98 42.85 64.07)"  >
<g style="" vector-effect="non-scaling-stroke"   >
		<g transform="matrix(1 0 0 1 0 0)"  >
<path style="stroke: none; stroke-width: 1; stroke-dasharray: none; stroke-linecap: butt; stroke-dashoffset: 0; stroke-linejoin: miter; stroke-miterlimit: 4; fill: rgb(25,18,87); fill-rule: nonzero; opacity: 1;" vector-effect="non-scaling-stroke"  transform=" translate(-43, -64)" d="M 0 0 L 86 0 L 86 128 L 0 128 z" stroke-linecap="round" />
</g>
		<g transform="matrix(1 0 0 1 0 0)"  >
<path style="stroke: none; stroke-width: 1; stroke-dasharray: none; stroke-linecap: butt; stroke-dashoffset: 0; stroke-linejoin: miter; stroke-miterlimit: 4; fill: rgb(25,18,87); fill-rule: nonzero; opacity: 1;" vector-effect="non-scaling-stroke"  transform=" translate(-43, -64)" d="M 2 2 L 84 2 L 84 126 L 2 126 z" stroke-linecap="round" />
</g>
</g>
</g>
<g transform="matrix(0.16 0 0 0.16 42.22 63.65)" style="" id="21e83e6f-ee3e-4817-899f-67843416a277"  >
		<text xml:space="preserve" font-family="Raleway" font-size="100" font-style="normal" font-weight="900" style="stroke: none; stroke-width: 1; stroke-dasharray: none; stroke-linecap: butt; stroke-dashoffset: 0; stroke-linejoin: miter; stroke-miterlimit: 4; fill: rgb(255,255,255); fill-rule: nonzero; opacity: 1; white-space: pre;" ><tspan x="-204.55" y="31.41" >Account</tspan></text>
</g>
</svg>